<svg width="330" height="330" xmlns="http://www.w3.org/2000/svg" xmlns:xlink="http://www.w3.org/1999/xlink" xml:space="preserve" overflow="hidden"><defs><clipPath id="clip0"><rect x="483" y="1136" width="330" height="330"/></clipPath></defs><g clip-path="url(#clip0)" transform="translate(-483 -1136)"><path d="M483 1301C483 1209.87 556.873 1136 648 1136 739.127 1136 813 1209.87 813 1301 813 1392.13 739.127 1466 648 1466 556.873 1466 483 1392.13 483 1301ZM738.799 1349.89C765.801 1299.74 747.038 1237.2 696.892 1210.2 666.369 1193.77 629.631 1193.77 599.109 1210.2ZM557.201 1252.11C530.199 1302.26 548.962 1364.8 599.108 1391.8 629.631 1408.23 666.369 1408.23 696.891 1391.8Z" fill="#C00000" fill-rule="evenodd"/></g></svg>