<svg width="220" height="239" xmlns="http://www.w3.org/2000/svg" xmlns:xlink="http://www.w3.org/1999/xlink" xml:space="preserve" overflow="hidden"><g transform="translate(-1380 -1609)"><path d="M1589.5 1741.94C1589.5 1705.66 1563.28 1673.97 1525.75 1664.9L1525.75 1675.53 1504.5 1651.75 1525.75 1633.03 1525.75 1643.65C1563.28 1652.72 1589.5 1684.41 1589.5 1720.69Z" fill="#156082" fill-rule="evenodd"/><path d="M1504.5 1800.25C1547.06 1800.25 1583.06 1770.79 1588.74 1731.31 1595.01 1774.86 1562.37 1814.92 1515.85 1820.79 1512.09 1821.26 1508.3 1821.5 1504.5 1821.5Z" fill="#114D69" fill-rule="evenodd"/><path d="M1589.5 1741.94C1589.5 1705.66 1563.28 1673.97 1525.75 1664.9L1525.75 1675.53 1504.5 1651.75 1525.75 1633.03 1525.75 1643.65C1563.28 1652.72 1589.5 1684.41 1589.5 1720.69L1589.5 1741.94C1589.5 1785.88 1551.44 1821.5 1504.5 1821.5L1504.5 1800.25C1547.06 1800.25 1583.06 1770.79 1588.74 1731.31" stroke="#0070C0" stroke-width="20.625" stroke-miterlimit="8" fill="none" fill-rule="evenodd"/><path d="M1390.5 1715.06C1390.5 1751.34 1416.72 1783.03 1454.25 1792.1L1454.25 1781.47 1475.5 1805.25 1454.25 1823.97 1454.25 1813.35C1416.72 1804.28 1390.5 1772.59 1390.5 1736.31Z" fill="#156082" fill-rule="evenodd"/><path d="M1475.5 1656.75C1432.94 1656.75 1396.94 1686.21 1391.26 1725.69 1384.99 1682.14 1417.63 1642.08 1464.15 1636.21 1467.91 1635.74 1471.7 1635.5 1475.5 1635.5Z" fill="#114D69" fill-rule="evenodd"/><path d="M1390.5 1715.06C1390.5 1751.34 1416.72 1783.03 1454.25 1792.1L1454.25 1781.47 1475.5 1805.25 1454.25 1823.97 1454.25 1813.35C1416.72 1804.28 1390.5 1772.59 1390.5 1736.31L1390.5 1715.06C1390.5 1671.12 1428.56 1635.5 1475.5 1635.5L1475.5 1656.75C1432.94 1656.75 1396.94 1686.21 1391.26 1725.69" stroke="#0070C0" stroke-width="20.625" stroke-miterlimit="8" fill="none" fill-rule="evenodd"/></g></svg>