<svg width="561" height="1823" xmlns="http://www.w3.org/2000/svg" xmlns:xlink="http://www.w3.org/1999/xlink" xml:space="preserve" overflow="hidden"><g transform="translate(-761 -243)"><path d="M1182.94 1588.52C1297.8 1660.56 1332.52 1812.07 1260.48 1926.94 1188.44 2041.8 1036.93 2076.52 922.061 2004.48 807.197 1932.44 772.48 1780.93 844.519 1666.06 861.226 1639.42 882.895 1616.24 908.347 1597.78" stroke="#000000" stroke-width="45.8333" stroke-miterlimit="8" fill="none" fill-rule="evenodd"/><path d="M898 351 898 1609.12" stroke="#000000" stroke-width="45.8333" stroke-miterlimit="8" fill="none" fill-rule="evenodd"/><path d="M898.023 350.487C899.12 303.372 937.732 265.805 984.86 266.001" stroke="#000000" stroke-width="45.8333" stroke-miterlimit="8" fill="none" fill-rule="evenodd"/><path d="M0 0 121.773 0.000721785" stroke="#000000" stroke-width="45.8333" stroke-miterlimit="8" fill="none" fill-rule="evenodd" transform="matrix(1 0 0 -1 982 266.001)"/><path d="M0.0237861 84.4757C1.13298 37.3657 39.9646-0.193911 87.3594 0.00081475" stroke="#000000" stroke-width="45.8333" stroke-miterlimit="8" fill="none" fill-rule="evenodd" transform="matrix(-1 0 0 1 1191 266)"/><path d="M1191 348 1191 1608.54" stroke="#000000" stroke-width="45.8333" stroke-miterlimit="8" fill="none" fill-rule="evenodd"/><path d="M0 0 121.773 0.000721785" stroke="#000000" stroke-width="36.6667" stroke-miterlimit="8" fill="none" fill-rule="evenodd" transform="matrix(1 0 0 -1 761.5 1525.5)"/><path d="M0 0 121.773 0.000721785" stroke="#000000" stroke-width="36.6667" stroke-miterlimit="8" fill="none" fill-rule="evenodd" transform="matrix(1 0 0 -1 776.5 372.501)"/><path d="M0 0 121.773 0.000721785" stroke="#000000" stroke-width="36.6667" stroke-miterlimit="8" fill="none" fill-rule="evenodd" transform="matrix(1 0 0 -1 762.5 948.501)"/><path d="M0 0 121.773 0.000721785" stroke="#000000" stroke-width="36.6667" stroke-miterlimit="8" fill="none" fill-rule="evenodd" transform="matrix(1 0 0 -1 767.5 1229.5)"/><path d="M0 0 121.773 0.000721785" stroke="#000000" stroke-width="36.6667" stroke-miterlimit="8" fill="none" fill-rule="evenodd" transform="matrix(1 0 0 -1 767.5 653.501)"/></g></svg>