<svg width="1064" height="1313" xmlns="http://www.w3.org/2000/svg" xmlns:xlink="http://www.w3.org/1999/xlink" xml:space="preserve" overflow="hidden"><g transform="translate(-1448 -609)"><rect x="1487" y="648" width="986" height="1228" stroke="#000000" stroke-width="77.9167" stroke-miterlimit="8" fill="none"/><path d="M0 0 492.573 0.000360892" stroke="#000000" stroke-width="77.9167" stroke-miterlimit="8" fill="none" fill-rule="evenodd" transform="matrix(-1 0 0 1 2472.57 1097)"/><path d="M0 0 215.956 274.696" stroke="#156082" stroke-width="44.6875" stroke-miterlimit="8" fill="none" fill-rule="evenodd" transform="matrix(1 0 0 -1 1574.5 1003.2)"/><path d="M0 0 123.75 160.248" stroke="#156082" stroke-width="44.6875" stroke-miterlimit="8" fill="none" fill-rule="evenodd" transform="matrix(1 0 0 -1 1705.5 1031.75)"/><path d="M0 0 6.4708 1227.79" stroke="#000000" stroke-width="91.6667" stroke-miterlimit="8" fill="none" fill-rule="evenodd" transform="matrix(-1 0 0 1 1986.47 648)"/><path d="M0 0 492.573 0.000360892" stroke="#000000" stroke-width="77.9167" stroke-miterlimit="8" fill="none" fill-rule="evenodd" transform="matrix(-1 0 0 1 1979.57 1097)"/><path d="M0 0 215.956 274.696" stroke="#156082" stroke-width="44.6875" stroke-miterlimit="8" fill="none" fill-rule="evenodd" transform="matrix(1 0 0 -1 2066.5 994.196)"/><path d="M0 0 123.75 160.248" stroke="#156082" stroke-width="44.6875" stroke-miterlimit="8" fill="none" fill-rule="evenodd" transform="matrix(1 0 0 -1 2197.5 1022.75)"/><path d="M0 0 215.956 274.696" stroke="#156082" stroke-width="44.6875" stroke-miterlimit="8" fill="none" fill-rule="evenodd" transform="matrix(1 0 0 -1 1563.5 1449.2)"/><path d="M0 0 123.75 160.248" stroke="#156082" stroke-width="44.6875" stroke-miterlimit="8" fill="none" fill-rule="evenodd" transform="matrix(1 0 0 -1 1694.5 1477.75)"/><path d="M0 0 215.956 274.696" stroke="#156082" stroke-width="44.6875" stroke-miterlimit="8" fill="none" fill-rule="evenodd" transform="matrix(1 0 0 -1 2059.5 1443.2)"/><path d="M0 0 123.75 160.248" stroke="#156082" stroke-width="44.6875" stroke-miterlimit="8" fill="none" fill-rule="evenodd" transform="matrix(1 0 0 -1 2190.5 1471.75)"/></g></svg>