<svg width="1965" height="1781" xmlns="http://www.w3.org/2000/svg" xmlns:xlink="http://www.w3.org/1999/xlink" xml:space="preserve" overflow="hidden"><g transform="translate(-915 -349)"><rect x="1526" y="615" width="743" height="1228" stroke="#000000" stroke-width="91.6667" stroke-miterlimit="8" fill="none"/><path d="M961 392 961 2083.25" stroke="#000000" stroke-width="91.6667" stroke-miterlimit="8" fill="none" fill-rule="evenodd"/><path d="M961 392 1526.37 615.235" stroke="#000000" stroke-width="91.6667" stroke-miterlimit="8" fill="none" fill-rule="evenodd"/><path d="M0 0 565.368 232.132" stroke="#000000" stroke-width="91.6667" stroke-miterlimit="8" fill="none" fill-rule="evenodd" transform="matrix(1 0 0 -1 961 2078.13)"/><path d="M961 1064 1526.37 1064" stroke="#000000" stroke-width="91.6667" stroke-miterlimit="8" fill="none" fill-rule="evenodd"/><path d="M0 0 0.000360892 1691.25" stroke="#000000" stroke-width="91.6667" stroke-miterlimit="8" fill="none" fill-rule="evenodd" transform="matrix(-1 0 0 1 2834 392)"/><path d="M0 0 565.368 223.235" stroke="#000000" stroke-width="91.6667" stroke-miterlimit="8" fill="none" fill-rule="evenodd" transform="matrix(-1 0 0 1 2834.37 392)"/><path d="M2834.37 2078.13 2269 1846" stroke="#000000" stroke-width="91.6667" stroke-miterlimit="8" fill="none" fill-rule="evenodd"/><path d="M0 0 565.368 0.000360892" stroke="#000000" stroke-width="91.6667" stroke-miterlimit="8" fill="none" fill-rule="evenodd" transform="matrix(-1 0 0 1 2834.37 1064)"/><path d="M0 0 215.956 274.696" stroke="#156082" stroke-width="55" stroke-miterlimit="8" fill="none" fill-rule="evenodd" transform="matrix(1 0 0 -1 2376.5 865.196)"/><path d="M0 0 123.75 160.248" stroke="#156082" stroke-width="55" stroke-miterlimit="8" fill="none" fill-rule="evenodd" transform="matrix(1 0 0 -1 2507.5 893.749)"/><path d="M0 0 215.956 274.696" stroke="#156082" stroke-width="55" stroke-miterlimit="8" fill="none" fill-rule="evenodd" transform="matrix(1 0 0 -1 2373.5 1465.2)"/><path d="M0 0 123.75 160.248" stroke="#156082" stroke-width="55" stroke-miterlimit="8" fill="none" fill-rule="evenodd" transform="matrix(1 0 0 -1 2504.5 1494.75)"/><path d="M0 0 215.956 274.696" stroke="#156082" stroke-width="55" stroke-miterlimit="8" fill="none" fill-rule="evenodd" transform="matrix(1 0 0 -1 1057.5 877.196)"/><path d="M0 0 123.75 160.248" stroke="#156082" stroke-width="55" stroke-miterlimit="8" fill="none" fill-rule="evenodd" transform="matrix(1 0 0 -1 1188.5 906.749)"/><path d="M0 0 215.956 274.696" stroke="#156082" stroke-width="55" stroke-miterlimit="8" fill="none" fill-rule="evenodd" transform="matrix(1 0 0 -1 1060.5 1437.2)"/><path d="M0 0 123.75 160.248" stroke="#156082" stroke-width="55" stroke-miterlimit="8" fill="none" fill-rule="evenodd" transform="matrix(1 0 0 -1 1191.5 1465.75)"/></g></svg>